# xmcd CD database file
#
# Track frame offsets:
#	150
#	17865
#	40445
#	60737
#
# Disc length: 1043 seconds
#
# Revision: 0
# Processed by: cddbd v1.5.1PL0 Copyright (c) Steve Scherf et al.
# Submitted via: CDex 1.51
#
DISCID=31041104
DTITLE=新堂敦士 - 君を壊したい
DYEAR=1900
DGENRE=J-POP
TTITLE0=君を壊したい
TTITLE1=ザズ<The Z>
TTITLE2=Maybe Sugar
TTITLE3=君を壊したい(カラオケ)
EXTD=
EXTT0=
EXTT1=
EXTT2=
EXTT3=
PLAYORDER=
